
Genre:Action | Adventure | Sci-Fi
Language:English
IMDb:http://www.imdb.com/title/tt1399103/
Source:TS.RELIZLAB/SpankMySeedBox CamRip XviD Thanks!

Format : MPEG-4
Format profile : Base Media
Codec ID : isom
File size : 1.32 GiB
Duration : 2h 11mn
Overall bit rate : 1 432 Kbps

Video
ID : 1
Format : AVC
Format/Info : Advanced Video Codec
Format profile : High@L4.1
Format settings, CABAC : Yes
Format settings, ReFrames : 3 frames
Codec ID : avc1
Codec ID/Info : Advanced Video Coding
Duration : 2h 11mn
Bit rate mode : Variable
Bit rate : 1 200 Kbps
Maximum bit rate : 5 251 Kbps
Width : 720 pixels
Height : 304 pixels
Display aspect ratio : 2.35:1
Frame rate mode : Constant
Frame rate : 25.000 fps
Color space : YUV
Chroma subsampling : 4:2:0
Bit depth : 8 bits
Scan type : Progressive
Bits/(Pixel*Frame) : 0.219
Stream size : 1.11 GiB (84%)
Writing library : x264

Audio
ID : 2
Format : AAC
Format/Info : Advanced Audio Codec
Format version : Version 4
Format profile : LC
Format settings, SBR : No
Codec ID : 40
Duration : 2h 11mn
Bit rate mode : Variable
Bit rate : 224 Kbps
Maximum bit rate : 276 Kbps
Channel(s) : 2 channels
Channel positions : Front: L R
Sampling rate : 48.0 KHz
Stream size : 211 MiB (16%)


Plot:
The Autobots learn of a Cybertronian spacecraft hidden on the Moon, and race against the Decepticons to reach it and to learn its secrets
 
http://leetleech.org/images/56049888661284994051.png
 
http://leetleech.org/images/24285448791868952489.png
 
http://leetleech.org/images/52484647044650884413.png
 
http://leetleech.org/images/69398567310449626299.png
 
http://leetleech.org/images/31003349826166154821.png
 
http://leetleech.org/images/95796069327212215833.png